<?xml version="1.0" encoding="UTF-8" standalone="no"?>
<!-- Created with Inkscape (http://www.inkscape.org/) -->

<svg
   width="82.824936mm"
   height="98.724358mm"
   viewBox="0 0 82.824936 98.724358"
   version="1.1"
   id="svg1"
   xml:space="preserve"
   sodipodi:docname="card.svg"
   inkscape:export-filename="card.png"
   inkscape:export-xdpi="96"
   inkscape:export-ydpi="96"
   xmlns:inkscape="http://www.inkscape.org/namespaces/inkscape"
   xmlns:sodipodi="http://sodipodi.sourceforge.net/DTD/sodipodi-0.dtd"
   xmlns="http://www.w3.org/2000/svg"
   xmlns:svg="http://www.w3.org/2000/svg"><sodipodi:namedview
     id="namedview1"
     pagecolor="#ffffff"
     bordercolor="#000000"
     borderopacity="0.25"
     inkscape:showpageshadow="2"
     inkscape:pageopacity="0.0"
     inkscape:pagecheckerboard="0"
     inkscape:deskcolor="#d1d1d1"
     inkscape:document-units="mm"
     inkscape:zoom="0.73139029"
     inkscape:cx="62.893917"
     inkscape:cy="416.33038"
     inkscape:window-width="1920"
     inkscape:window-height="1017"
     inkscape:window-x="-8"
     inkscape:window-y="-8"
     inkscape:window-maximized="1"
     inkscape:current-layer="layer1"
     inkscape:export-bgcolor="#ffffff00" /><defs
     id="defs1" /><g
     inkscape:label="Layer 1"
     inkscape:groupmode="layer"
     id="layer1"
     transform="translate(-57.68052,-99.155706)"><path
       style="fill:#000000;fill-opacity:1"
       d="m 86.754181,197.41959 c 16.412309,-0.0761 23.753009,-0.0238 23.987349,0.17065 0.23509,0.19511 0.38977,0.19597 0.50914,0.003 0.26294,-0.42544 9.31115,-0.37474 9.51089,0.0533 0.12273,0.26298 0.18632,0.2619 0.31046,-0.005 0.12075,-0.25995 1.7077,-0.33048 7.00775,-0.31147 3.89436,0.014 6.91707,0.13046 7.00325,0.2699 0.0834,0.13492 0.89433,0.24532 1.80209,0.24532 1.56419,0 1.69949,-0.0519 2.58787,-0.99219 0.99239,-1.05041 1.30989,-2.47359 0.77487,-3.47329 -0.27102,-0.50641 -0.36613,-87.78568 -0.099,-90.87736 0.12719,-1.47224 0.091,-1.59208 -0.73795,-2.4474 -0.80803,-0.833676 -0.99234,-0.899348 -2.52396,-0.899348 -0.90875,0 -1.72586,0.119062 -1.8158,0.264583 -0.10209,0.165188 -2.69565,0.264588 -6.9037,0.264588 h -6.74017 l -0.77592,0.793747 -0.77591,0.79375 H 98.881649 77.887857 l -0.760461,-0.79375 -0.760461,-0.793747 h -6.681759 c -4.169103,0 -6.743251,-0.0995 -6.84528,-0.264588 -0.08994,-0.145521 -0.836084,-0.264583 -1.658105,-0.264583 -1.366671,0 -1.580455,0.08385 -2.497927,0.979738 -0.849452,0.82947 -1.003343,1.15172 -1.003343,2.10105 0,0.61672 0.119062,1.1949 0.264583,1.28484 0.366278,0.22637 0.366278,89.46738 0,89.69375 -0.145521,0.0899 -0.264583,0.71702 -0.264583,1.39352 0,1.06348 0.134322,1.36819 0.992187,2.25072 l 0.992188,1.02073 1.719791,-0.17519 c 0.945886,-0.0964 12.362158,-0.2245 25.369494,-0.28478 z m -27.304367,-1.37521 -0.71096,-0.74208 v -22.67354 c 0,-12.47045 0.07992,-22.67355 0.177604,-22.67355 0.09768,0 0.395339,0.19705 0.661458,0.43788 0.451348,0.40847 0.483855,0.40658 0.483855,-0.0281 0,-0.25627 -0.303927,-0.70502 -0.675392,-0.99722 -0.371466,-0.29219 -0.610321,-0.59633 -0.530789,-0.67586 0.07953,-0.0795 0.383458,0.0716 0.675392,0.33575 0.50133,0.4537 0.530789,0.4545 0.530789,0.0144 0,-0.25627 -0.303927,-0.70502 -0.675392,-0.99721 -0.371466,-0.2922 -0.610321,-0.59634 -0.530789,-0.67587 0.07953,-0.0795 0.383458,0.0716 0.675392,0.33576 0.514848,0.46593 0.530789,0.46414 0.530789,-0.0594 0,-0.29686 -0.297656,-0.73478 -0.661459,-0.97315 l -0.661458,-0.4334 v -20.68432 c 0,-13.70102 0.08876,-20.59556 0.262896,-20.42142 0.168244,0.16824 0.28793,7.45081 0.332428,20.22739 l 0.06953,19.9645 0.05603,-20.10833 c 0.04829,-17.33126 0.0024,-20.17926 -0.332429,-20.62192 -0.213653,-0.28248 -0.38846,-1.06387 -0.38846,-1.73644 0,-0.99442 0.138622,-1.35565 0.742082,-1.93381 l 0.742082,-0.71095 h 7.436482 7.436481 l 0.667897,0.79375 0.667896,0.79375 h 22.45715 22.457151 l 0.76046,-0.79375 0.76046,-0.79375 h 7.5773 7.57729 l 0.57529,0.61236 c 0.52502,0.55886 0.57528,0.89122 0.57528,3.80406 0,2.51429 -0.0842,3.26161 -0.39688,3.52108 -0.3458,0.28698 -0.39688,2.69172 -0.39688,18.68552 0,11.97727 0.0913,18.35614 0.2628,18.35614 0.1708,0 0.28719,-6.459 0.33255,-18.45469 l 0.0698,-18.45468 0.0643,18.90323 0.0643,18.90323 -0.70831,0.73932 c -0.79526,0.83008 -0.63477,1.30901 0.25733,0.76788 0.4484,-0.272 0.4042,-0.16325 -0.19119,0.47028 -0.84832,0.90268 -0.73374,1.41368 0.19119,0.85264 0.45962,-0.27881 0.4229,-0.18308 -0.17323,0.45153 -0.84288,0.89729 -0.73686,1.73351 0.12131,0.95687 0.49378,-0.44686 0.5029,-0.04 0.5029,22.42622 v 22.88135 l -0.61236,0.57529 -0.61237,0.57528 H 99.054086 60.160773 Z m 1.141123,-0.20873 c 0,-0.46371 -0.171586,-0.7311 -0.529166,-0.82461 -0.523695,-0.13695 -0.529167,-0.36089 -0.529167,-21.65545 0,-14.05931 -0.0917,-21.57374 -0.264583,-21.68059 -0.175575,-0.10851 -0.264584,7.20147 -0.264584,21.72932 v 21.89283 l 0.575288,0.61236 c 0.745092,0.79312 1.012212,0.77363 1.012212,-0.0739 z m 77.704273,0.11094 0.61236,-0.57529 -0.0646,-21.98044 -0.0646,-21.98044 -0.0692,21.74378 -0.0692,21.74378 -0.59378,0.0843 c -0.42462,0.0603 -0.61763,0.29163 -0.6775,0.81195 -0.101,0.87784 0.11627,0.91356 0.92657,0.15232 z m -1.08538,-90.90437 c -0.26437,-0.26436 -0.19668,-0.25934 -4.05695,-0.30087 l -3.37343,-0.0363 -1.55842,-1.98819 c -0.85713,-1.0935 -1.61428,-1.93232 -1.68256,-1.86404 -0.0683,0.0683 0.5519,1.08348 1.3782,2.25599 l 1.50235,2.13185 h 3.99462 c 2.19704,0 3.90533,-0.0893 3.79619,-0.19844 z m -2.81685,-1.27186 c 0.53462,0.48382 1.07501,0.36684 1.07501,-0.23271 0,-0.19188 -0.1816,-0.49958 -0.40355,-0.68378 -0.36007,-0.29883 -0.35505,-0.38852 0.0467,-0.8324 0.34669,-0.38308 0.37821,-0.56949 0.13708,-0.81062 -0.24113,-0.24113 -0.41269,-0.21358 -0.74606,0.11979 -0.39567,0.39566 -0.48776,0.39699 -1.07003,0.0155 -0.89158,-0.58418 -1.44468,-0.0567 -0.74788,0.7133 0.45022,0.49749 0.45378,0.56941 0.0503,1.01528 -0.33214,0.36702 -0.3613,0.55282 -0.12399,0.79014 0.23731,0.23731 0.42312,0.20815 0.79014,-0.124 0.44549,-0.40317 0.51656,-0.40106 0.99235,0.0295 z"
       id="path1"
       sodipodi:nodetypes="cscscsssssscssscccccccsssssssssccccccsssssscssscsscssscsssscccccccccccsssssscccssssssscccccccsssscsccccccccssccsscssscsscsssssssssscc" /></g></svg>
